<?xml version="1.0" encoding="UTF-8"?>
<svg version="1.1" xmlns="http://www.w3.org/2000/svg" width="33" height="33">
<path d="M0 0 C10.56 0 21.12 0 32 0 C31 11 31 11 28 20 C20.08 20 12.16 20 4 20 C1 11 1 11 0 0 Z M4 3 C4.70984456 11.21881227 4.70984456 11.21881227 6 16 C12.6 16 19.2 16 26 16 C28.14462031 7.88579937 28.14462031 7.88579937 28 3 C20.08 3 12.16 3 4 3 Z " fill="#B0B0B0" transform="translate(1,13)"/>
<path d="M0 0 C7.92 0 15.84 0 24 0 C24 2.64 24 5.28 24 8 C23.01 8 22.02 8 21 8 C21 6.35 21 4.7 21 3 C15.06 3 9.12 3 3 3 C3 4.65 3 6.3 3 8 C2.01 8 1.02 8 0 8 C0 5.36 0 2.72 0 0 Z " fill="#B5B5B5" transform="translate(5,1)"/>
<path d="M0 0 C0.99 0.103125 1.98 0.20625 3 0.3125 C3.66 1.3025 4.32 2.2925 5 3.3125 C3.875 4.875 3.875 4.875 2 6.3125 C-1.1875 6 -1.1875 6 -4 5.3125 C-4.33 4.3225 -4.66 3.3325 -5 2.3125 C-3 0.3125 -3 0.3125 0 0 Z " fill="#B6B6B6" transform="translate(17,19.6875)"/>
</svg>
