<?xml version="1.0" encoding="UTF-8"?>
<svg version="1.1" xmlns="http://www.w3.org/2000/svg" width="34" height="33">
<path d="M0 0 C4.3782512 -0.02469081 8.75646567 -0.04285557 13.13476562 -0.05493164 C14.62468166 -0.05996514 16.11459274 -0.06679242 17.60449219 -0.07543945 C19.74415304 -0.08754805 21.88374868 -0.09323807 24.0234375 -0.09765625 C25.31169434 -0.10289307 26.59995117 -0.10812988 27.92724609 -0.11352539 C31 0 31 0 33 1 C32.41065754 8.18997804 30.95852527 13.81874067 29 21 C20.42 21 11.84 21 3 21 C1.9790625 17.1946875 1.9790625 17.1946875 0.9375 13.3125 C0.71956787 12.52270752 0.50163574 11.73291504 0.27709961 10.91918945 C0.11218018 10.28198975 -0.05273926 9.64479004 -0.22265625 8.98828125 C-0.39547119 8.34415283 -0.56828613 7.70002441 -0.74633789 7.03637695 C-1.0609661 4.51056953 -0.59915331 2.45820844 0 0 Z M3 4 C3.99 8.62 4.98 13.24 6 18 C12.6 18 19.2 18 26 18 C26.99 13.38 27.98 8.76 29 4 C20.42 4 11.84 4 3 4 Z " fill="#F9F9F9" transform="translate(1,12)"/>
<path d="M0 0 C1.07507813 -0.00128906 2.15015625 -0.00257812 3.2578125 -0.00390625 C4.38960937 -0.00003906 5.52140625 0.00382812 6.6875 0.0078125 C7.81929687 0.00394531 8.95109375 0.00007813 10.1171875 -0.00390625 C11.19226563 -0.00261719 12.26734375 -0.00132813 13.375 0 C14.86580078 0.00169189 14.86580078 0.00169189 16.38671875 0.00341797 C18.6875 0.1328125 18.6875 0.1328125 19.6875 1.1328125 C19.72842937 3.46578683 19.72991723 5.79986475 19.6875 8.1328125 C18.3675 8.1328125 17.0475 8.1328125 15.6875 8.1328125 C15.6875 6.8128125 15.6875 5.4928125 15.6875 4.1328125 C9.7475 4.1328125 3.8075 4.1328125 -2.3125 4.1328125 C-2.3125 5.4528125 -2.3125 6.7728125 -2.3125 8.1328125 C-3.6325 8.1328125 -4.9525 8.1328125 -6.3125 8.1328125 C-6.35491723 5.79986475 -6.35342937 3.46578683 -6.3125 1.1328125 C-4.59682208 -0.58286542 -2.33877265 0.00265425 0 0 Z " fill="#E9E9E9" transform="translate(10.3125,-0.1328125)"/>
<path d="M0 0 C0.94875 0.04125 1.8975 0.0825 2.875 0.125 C3.535 1.445 4.195 2.765 4.875 4.125 C2.875 6.125 2.875 6.125 -0.25 6.25 C-1.19875 6.20875 -2.1475 6.1675 -3.125 6.125 C-3.785 4.805 -4.445 3.485 -5.125 2.125 C-3.125 0.125 -3.125 0.125 0 0 Z " fill="#FEFEFE" transform="translate(17.125,19.875)"/>
</svg>
