<?xml version="1.0" encoding="UTF-8"?>
<svg version="1.1" xmlns="http://www.w3.org/2000/svg" width="30" height="29">
<path d="M0 0 C5.03972583 1.00794517 7.33470887 1.48237528 11 5 C11.77317242 8.58331252 11.6106652 12.04127507 11.4375 15.6875 C11.41880859 16.66267578 11.40011719 17.63785156 11.38085938 18.64257812 C11.19647879 25.80352121 11.19647879 25.80352121 10 27 C6.7 27 3.4 27 0 27 C0 18.09 0 9.18 0 0 Z " fill="#EBEBEB" transform="translate(18,1)"/>
<path d="M0 0 C0.99 0.33 1.98 0.66 3 1 C3 9.25 3 17.5 3 26 C2.01 26.33 1.02 26.66 0 27 C-1.29776917 24.40446166 -1.12950035 22.49294473 -1.1328125 19.58984375 C-1.13410156 18.51798828 -1.13539062 17.44613281 -1.13671875 16.34179688 C-1.13285156 15.21837891 -1.12898437 14.09496094 -1.125 12.9375 C-1.12886719 11.81021484 -1.13273438 10.68292969 -1.13671875 9.52148438 C-1.13542969 8.45091797 -1.13414063 7.38035156 -1.1328125 6.27734375 C-1.13168457 5.28984131 -1.13055664 4.30233887 -1.12939453 3.28491211 C-1 1 -1 1 0 0 Z " fill="#ECECEC" transform="translate(2,1)"/>
<path d="M0 0 C0.99 0 1.98 0 3 0 C3 8.58 3 17.16 3 26 C2.01 26.33 1.02 26.66 0 27 C-0.98948571 24.03154286 -1.12890185 22.06179939 -1.1328125 18.96484375 C-1.13410156 17.99095703 -1.13539062 17.01707031 -1.13671875 16.01367188 C-1.13285156 14.99853516 -1.12898437 13.98339844 -1.125 12.9375 C-1.12886719 11.91849609 -1.13273438 10.89949219 -1.13671875 9.84960938 C-1.13542969 8.87701172 -1.13414063 7.90441406 -1.1328125 6.90234375 C-1.13168457 6.01023193 -1.13055664 5.11812012 -1.12939453 4.19897461 C-1 2 -1 2 0 0 Z " fill="#E3E3E3" transform="translate(10,1)"/>
</svg>
